<svg viewBox="0 0 330 200" xmlns="http://www.w3.org/2000/svg"><g><g><g><g><g><line x1="39.15625" y1="176" x2="34.15625" y2="176" style="visibility: inherit;" fill="rgb(0, 0, 0)" stroke="rgb(204, 204, 204)" stroke-width="1px"></line><line x1="39.15625" y1="158.4" x2="34.15625" y2="158.4" style="visibility: inherit;" fill="rgb(0, 0, 0)" stroke="rgb(204, 204, 204)" stroke-width="1px"></line><line x1="39.15625" y1="140.8" x2="34.15625" y2="140.8" style="visibility: inherit;" fill="rgb(0, 0, 0)" stroke="rgb(204, 204, 204)" stroke-width="1px"></line><line x1="39.15625" y1="123.2" x2="34.15625" y2="123.2" style="visibility: inherit;" fill="rgb(0, 0, 0)" stroke="rgb(204, 204, 204)" stroke-width="1px"></line><line x1="39.15625" y1="105.6" x2="34.15625" y2="105.6" style="visibility: inherit;" fill="rgb(0, 0, 0)" stroke="rgb(204, 204, 204)" stroke-width="1px"></line><line x1="39.15625" y1="88" x2="34.15625" y2="88" style="visibility: inherit;" fill="rgb(0, 0, 0)" stroke="rgb(204, 204, 204)" stroke-width="1px"></line><line x1="39.15625" y1="70.4" x2="34.15625" y2="70.4" style="visibility: inherit;" fill="rgb(0, 0, 0)" stroke="rgb(204, 204, 204)" stroke-width="1px"></line><line x1="39.15625" y1="52.80000000000001" x2="34.15625" y2="52.80000000000001" style="visibility: inherit;" fill="rgb(0, 0, 0)" stroke="rgb(204, 204, 204)" stroke-width="1px"></line><line x1="39.15625" y1="35.19999999999999" x2="34.15625" y2="35.19999999999999" style="visibility: inherit;" fill="rgb(0, 0, 0)" stroke="rgb(204, 204, 204)" stroke-width="1px"></line><line x1="39.15625" y1="17.599999999999994" x2="34.15625" y2="17.599999999999994" style="visibility: inherit;" fill="rgb(0, 0, 0)" stroke="rgb(204, 204, 204)" stroke-width="1px"></line><line x1="39.15625" y1="0" x2="34.15625" y2="0" style="visibility: inherit;" fill="rgb(0, 0, 0)" stroke="rgb(204, 204, 204)" stroke-width="1px"></line></g><g transform="translate(29.15625, 0)"><text x="0" y="176" dx="0em" dy="0.3em" style="text-anchor: end; visibility: hidden; font-family: &quot;Helvetica Neue&quot;, sans-serif; font-size: 12px; font-weight: 200;" fill="rgb(33, 33, 33)" stroke="none" stroke-width="1px">0</text><text x="0" y="158.4" dx="0em" dy="0.3em" style="text-anchor: end; visibility: inherit; font-family: &quot;Helvetica Neue&quot;, sans-serif; font-size: 12px; font-weight: 200;" fill="rgb(33, 33, 33)" stroke="none" stroke-width="1px">0.1</text><text x="0" y="140.8" dx="0em" dy="0.3em" style="text-anchor: end; visibility: hidden; font-family: &quot;Helvetica Neue&quot;, sans-serif; font-size: 12px; font-weight: 200;" fill="rgb(33, 33, 33)" stroke="none" stroke-width="1px">0.2</text><text x="0" y="123.2" dx="0em" dy="0.3em" style="text-anchor: end; visibility: inherit; font-family: &quot;Helvetica Neue&quot;, sans-serif; font-size: 12px; font-weight: 200;" fill="rgb(33, 33, 33)" stroke="none" stroke-width="1px">0.3</text><text x="0" y="105.6" dx="0em" dy="0.3em" style="text-anchor: end; visibility: hidden; font-family: &quot;Helvetica Neue&quot;, sans-serif; font-size: 12px; font-weight: 200;" fill="rgb(33, 33, 33)" stroke="none" stroke-width="1px">0.4</text><text x="0" y="88" dx="0em" dy="0.3em" style="text-anchor: end; visibility: inherit; font-family: &quot;Helvetica Neue&quot;, sans-serif; font-size: 12px; font-weight: 200;" fill="rgb(33, 33, 33)" stroke="none" stroke-width="1px">0.5</text><text x="0" y="70.4" dx="0em" dy="0.3em" style="text-anchor: end; visibility: hidden; font-family: &quot;Helvetica Neue&quot;, sans-serif; font-size: 12px; font-weight: 200;" fill="rgb(33, 33, 33)" stroke="none" stroke-width="1px">0.6</text><text x="0" y="52.80000000000001" dx="0em" dy="0.3em" style="text-anchor: end; visibility: inherit; font-family: &quot;Helvetica Neue&quot;, sans-serif; font-size: 12px; font-weight: 200;" fill="rgb(33, 33, 33)" stroke="none" stroke-width="1px">0.7</text><text x="0" y="35.19999999999999" dx="0em" dy="0.3em" style="text-anchor: end; visibility: hidden; font-family: &quot;Helvetica Neue&quot;, sans-serif; font-size: 12px; font-weight: 200;" fill="rgb(33, 33, 33)" stroke="none" stroke-width="1px">0.8</text><text x="0" y="17.599999999999994" dx="0em" dy="0.3em" style="text-anchor: end; visibility: inherit; font-family: &quot;Helvetica Neue&quot;, sans-serif; font-size: 12px; font-weight: 200;" fill="rgb(33, 33, 33)" stroke="none" stroke-width="1px">0.9</text><text x="0" y="0" dx="0em" dy="0.3em" style="text-anchor: end; visibility: hidden; font-family: &quot;Helvetica Neue&quot;, sans-serif; font-size: 12px; font-weight: 200;" fill="rgb(33, 33, 33)" stroke="none" stroke-width="1px">1</text></g><line x1="39.15625" y1="0" x2="39.15625" y2="176" fill="rgb(0, 0, 0)" stroke="rgb(204, 204, 204)" stroke-width="1px"></line></g></g><g transform="translate(39, 0)" clip-path="url(#clip_0)"><clipPath id="clip_0"><rect width="290" height="176"></rect></clipPath><g><g><g><line x1="0" y1="0" x2="0" y2="176" fill="rgb(0, 0, 0)" stroke="rgb(66, 66, 66)" stroke-width="1px" opacity="0.25"></line><line x1="26.44034090909091" y1="0" x2="26.44034090909091" y2="176" fill="rgb(0, 0, 0)" stroke="rgb(66, 66, 66)" stroke-width="1px" opacity="0.25"></line><line x1="52.88068181818182" y1="0" x2="52.88068181818182" y2="176" fill="rgb(0, 0, 0)" stroke="rgb(66, 66, 66)" stroke-width="1px" opacity="0.25"></line><line x1="79.32102272727272" y1="0" x2="79.32102272727272" y2="176" fill="rgb(0, 0, 0)" stroke="rgb(66, 66, 66)" stroke-width="1px" opacity="0.25"></line><line x1="105.76136363636364" y1="0" x2="105.76136363636364" y2="176" fill="rgb(0, 0, 0)" stroke="rgb(66, 66, 66)" stroke-width="1px" opacity="0.25"></line><line x1="132.20170454545453" y1="0" x2="132.20170454545453" y2="176" fill="rgb(0, 0, 0)" stroke="rgb(66, 66, 66)" stroke-width="1px" opacity="0.25"></line><line x1="158.64204545454544" y1="0" x2="158.64204545454544" y2="176" fill="rgb(0, 0, 0)" stroke="rgb(66, 66, 66)" stroke-width="1px" opacity="0.25"></line><line x1="185.08238636363637" y1="0" x2="185.08238636363637" y2="176" fill="rgb(0, 0, 0)" stroke="rgb(66, 66, 66)" stroke-width="1px" opacity="0.25"></line><line x1="211.52272727272728" y1="0" x2="211.52272727272728" y2="176" fill="rgb(0, 0, 0)" stroke="rgb(66, 66, 66)" stroke-width="1px" opacity="0.25"></line><line x1="237.9630681818182" y1="0" x2="237.9630681818182" y2="176" fill="rgb(0, 0, 0)" stroke="rgb(66, 66, 66)" stroke-width="1px" opacity="0.25"></line><line x1="264.40340909090907" y1="0" x2="264.40340909090907" y2="176" fill="rgb(0, 0, 0)" stroke="rgb(66, 66, 66)" stroke-width="1px" opacity="0.25"></line><line x1="290.84375" y1="0" x2="290.84375" y2="176" fill="rgb(0, 0, 0)" stroke="rgb(66, 66, 66)" stroke-width="1px" opacity="0.25"></line></g><g><line x1="0" y1="176" x2="290.84375" y2="176" fill="rgb(0, 0, 0)" stroke="rgb(66, 66, 66)" stroke-width="1px" opacity="0.25"></line><line x1="0" y1="158.4" x2="290.84375" y2="158.4" fill="rgb(0, 0, 0)" stroke="rgb(66, 66, 66)" stroke-width="1px" opacity="0.25"></line><line x1="0" y1="140.8" x2="290.84375" y2="140.8" fill="rgb(0, 0, 0)" stroke="rgb(66, 66, 66)" stroke-width="1px" opacity="0.25"></line><line x1="0" y1="123.2" x2="290.84375" y2="123.2" fill="rgb(0, 0, 0)" stroke="rgb(66, 66, 66)" stroke-width="1px" opacity="0.25"></line><line x1="0" y1="105.6" x2="290.84375" y2="105.6" fill="rgb(0, 0, 0)" stroke="rgb(66, 66, 66)" stroke-width="1px" opacity="0.25"></line><line x1="0" y1="88" x2="290.84375" y2="88" fill="rgb(0, 0, 0)" stroke="rgb(66, 66, 66)" stroke-width="1px" opacity="0.25"></line><line x1="0" y1="70.4" x2="290.84375" y2="70.4" fill="rgb(0, 0, 0)" stroke="rgb(66, 66, 66)" stroke-width="1px" opacity="0.25"></line><line x1="0" y1="52.80000000000001" x2="290.84375" y2="52.80000000000001" fill="rgb(0, 0, 0)" stroke="rgb(66, 66, 66)" stroke-width="1px" opacity="0.25"></line><line x1="0" y1="35.19999999999999" x2="290.84375" y2="35.19999999999999" fill="rgb(0, 0, 0)" stroke="rgb(66, 66, 66)" stroke-width="1px" opacity="0.25"></line><line x1="0" y1="17.599999999999994" x2="290.84375" y2="17.599999999999994" fill="rgb(0, 0, 0)" stroke="rgb(66, 66, 66)" stroke-width="1px" opacity="0.25"></line><line x1="0" y1="0" x2="290.84375" y2="0" fill="rgb(0, 0, 0)" stroke="rgb(66, 66, 66)" stroke-width="1px" opacity="0.25"></line></g></g></g><g><g><line x1="0" y1="176" x2="290.84375" y2="176" fill="rgb(0, 0, 0)" stroke="rgb(153, 153, 153)" stroke-width="1.5px"></line></g></g><g><g><line x1="26.44034090909091" y1="0" x2="26.44034090909091" y2="176" fill="rgb(0, 0, 0)" stroke="rgb(153, 153, 153)" stroke-width="1.5px"></line></g></g><g><g><g><g><g><path stroke="rgb(255, 112, 67)" stroke-width="2px" d="M26.744933636363637,88L26.778777272727275,88L26.89723,88L26.998760909090908,88L27.794086363636364,88L27.81100818181818,88L27.89561727272727,88L28.250975454545458,88L28.30174090909091,88L28.40327181818182,88L28.57249,88L28.94477,88L29.33397181818182,88L29.384737272727275,88L29.41858090909091,88L29.99392272727273,88L30.061609999999998,88L30.078531818181816,88L30.21390636363636,88L30.50157727272727,88L30.62003,88L31.17845,88L31.29690272727273,88L31.449199090909094,88L31.48304272727273,88L31.550729999999998,88L31.872244545454546,88L31.973775454545454,88L32.09222818181818,88L32.17683727272727,88L32.26144636363637,88L32.34605545454546,88L32.53219545454545,88L32.56603909090909,88L32.97216272727273,88L33.24291181818182,88L34.91817181818182,88L35.18892090909091,88L35.44274818181818,88L35.54427909090909,88L35.57812272727273,88L35.62888818181818,88L35.815028181818185,88L36.44113545454546,88L36.88110272727273,88L37.625662727272726,88L37.710271818181816,88L38.217926363636366,88L38.285613636363635,88L38.776346363636364,88L38.89479909090909,88L38.97940818181819,88L39.554750000000006,88L39.74089,88L40.265466363636364,88L40.502371818181814,88L40.65466818181818,88L40.94233909090909,88L41.280775454545456,88L41.78843,88L42.17763181818182,88L42.39761545454546,88L43.81428892045455,88L43.9496634659091,88L43.98350710227273,88L44.20349073863637,88L44.321943465909094,88L44.37270892045454,88L44.44039619318181,88L44.5250052840909,88L45.489548920454546,88L45.87875073863636,88L45.980281647727274,88L46.52177982954546,88L46.67407619318182,88L46.77560710227273,88L47.401714375000005,88L47.60477619318181,88L48.16319619318182,88L48.637007102272726,88L48.67085073863636,88L49.02620892045454,88L49.110818011363634,88L49.127739829545455,88L49.144661647727276,88L49.550785284090914,88L49.720003465909095,88L49.75384710227273,88L50.22765801136364,88L50.27842346590909,88L50.32918892045455,88L50.36303255681818,88L50.65070346590909,88L51.124514375,88L51.19220164772727,88L51.361419829545454,88L52.122901647727275,88L52.34288528409091,88L52.376728920454546,88L52.56286892045455,88L52.71516528409091,88L53.62894346590909,88L54.64425255681818,88L55.101141647727275,88L55.52418710227273,88L56.099528920454546,88L56.53949619318182,88L56.87793255681818,88L56.928698011363636,88L57.53788346590909,88L57.673258011363636,88L58.011694375,88L59.331596193181824,88L59.39928346590909,88L59.805407102272724,88L59.991547102272726,88L60.02539073863636,88L60.228452556818176,88L60.38074892045454,88L60.69750420454546,88L60.76519147727273,88L61.34053329545454,88L62.42352965909091,88L62.94810602272727,88L62.99887147727273,88L63.16808965909091,88L63.23577693181819,88L63.35422965909091,88L63.45576056818182,88L63.55729147727273,88L63.82804056818182,88L63.84496238636364,88L64.08186784090908,88L64.14955511363635,88L64.50491329545454,88L64.69105329545454,88L65.1987078409091,88L65.30023875,88L65.96018965909091,88L65.97711147727273,88L67.43238784090909,88L67.46623147727273,88L67.53391875,88L67.61852784090908,88L68.85382056818182,88L69.02303875,88L69.05688238636364,88L69.15841329545455,88L69.22610056818182,88L69.3107096590909,88L69.32763147727273,88L69.41224056818182,88L69.69991147727274,88L69.91989511363637,88L70.00450420454546,88L70.61368965909091,88L70.88443875,88L70.90136056818181,88L71.03673511363637,88L71.05365693181818,88L71.22287511363636,88L71.71360784090909,88L71.93359147727273,88L71.95051329545454,88L72.01820056818183,88L72.10280965909091,88L72.61046420454545,88L72.81352602272727,88L72.84736965909092,88L73.23657147727272,88L73.28733693181819,88L73.5750078409091,88L74.04881875,88L74.30264602272727,88L74.57339511363637,88L74.70876965909092,88L74.72569147727273,88L75.09797147727272,88L75.47025147727273,88L75.58870420454545,88L75.69023511363636,88L75.70715693181819,88L75.77484420454546,88L75.8256096590909,88L75.85945329545454,88L75.87637511363637,88L75.89329693181817,88L76.21481147727273,88L76.53632602272727,88L76.85784056818183,88L76.99321511363637,88L77.04398056818182,88L77.72085329545455,88L77.81762494318181,88L78.0883740340909,88L78.32527948863635,88L78.4437322159091,88L78.66371585227273,88L78.83293403409091,88L79.35751039772727,88L79.3744322159091,88L79.86516494318181,88L79.93285221590908,88L80.08514857954546,88L80.32205403409091,88L80.62664676136365,88L80.84663039772727,88L80.965083125,88L81.08353585227272,88L81.20198857954546,88L81.2358322159091,88L81.25275403409091,88L81.30351948863637,88L81.55734676136363,88L82.081923125,88L82.84340494318182,88L83.16491948863636,88L83.58796494318182,88L83.60488676136363,88L83.62180857954546,88L83.63873039772727,88L83.79102676136364,88L84.11254130681817,88L84.19715039772728,88L84.34944676136364,88L84.46789948863636,88L85.07708494318183,88L85.11092857954546,88L85.16169403409091,88L85.22938130681818,88L85.68627039772727,88L85.95701948863636,88L86.0923940340909,88L86.56620494318182,88L87.32768676136364,88L87.36153039772728,88L87.51382676136363,88L87.76765403409091,88L88.02148130681817,88L88.038403125,88L88.27530857954547,88L88.29223039772727,88L88.39376130681818,88L88.44452676136363,88L88.52913585227273,88L88.73219767045455,88L88.85065039772726,88L88.86757221590909,88L89.13832130681818,88L89.57828857954546,88L90.13670857954546,88L90.7289722159091,88L91.55814130681819,88L91.59198494318181,88L91.77812494318181,88L92.133483125,88L92.86112130681818,88L93.01341767045454,88L93.064183125,88L93.5210722159091,88L93.72413403409091,88L94.04564857954546,88L94.77328676136364,88L94.87481767045453,88L94.92082386363636,88L95.14080750000001,88L95.3269475,88L95.4115565909091,88L95.56385295454545,88L95.66538386363636,88L95.81768022727272,88L96.00382022727273,88L96.20688204545455,88L96.51147477272727,88L96.56224022727272,88L96.64684931818182,88L96.7314584090909,88L97.49294022727273,88L97.50986204545454,88L97.57754931818181,88L97.6452365909091,88L97.72984568181819,88L97.78061113636363,88L98.03443840909091,88L98.42364022727273,88L98.59285840909091,88L98.84668568181819,88L98.88052931818181,88L99.03282568181818,88L99.0497475,88L99.33741840909092,88L99.55740204545454,88L100.14966568181819,88L100.36964931818181,88L100.60655477272726,88L100.89422568181818,88L100.96191295454545,88L101.6557075,88L101.72339477272727,88L101.7403165909091,88L101.97722204545454,88L102.34950204545454,88L102.55256386363635,88L102.72178204545455,88L102.87407840909091,88L103.11098386363636,88L103.31404568181819,88L103.72016931818182,88L103.77093477272727,88L103.7878565909091,88L103.82170022727273,88L103.8893875,88L103.99091840909091,88L104.34627659090908,88L104.43088568181818,88L104.58318204545455,88L104.6339475,88L105.02314931818182,88L105.15852386363636,88L105.39542931818183,88L105.54772568181818,88L105.64925659090909,88L106.02153659090908,88L107.37528204545454,88L107.74756204545454,88L107.91678022727272,88L108.10292022727273,88L108.3567475,88L108.88132386363635,88L109.18591659090909,88L109.43974386363637,88L109.57511840909092,88L109.60896204545455,88L109.91355477272728,88L110.01508568181819,88L110.20122568181817,88L110.30275659090908,88L110.87809840909091,88L110.89502022727274,88L111.60573659090909,88L111.7918765909091,88L112.2778500568182,88L112.48091187499999,88L112.63320823863637,88L113.25931551136362,88L113.32700278409091,88L113.6992827840909,88L113.8854227840909,88L113.98695369318182,88L114.0546409659091,88L114.13925005681818,88L114.528451875,88L114.900731875,88L115.49299551136363,88L115.78066642045454,88L116.06833732954546,88L116.18679005681818,88L116.67752278409091,88L116.69444460227272,88L116.79597551136364,88L116.8636627840909,88L116.96519369318182,88L117.06672460227273,88L117.20209914772727,88L117.35439551136363,88L117.62514460227273,88L117.70975369318181,88L118.18356460227272,88L118.47123551136364,88L118.64045369318181,88L118.67429732954545,88L118.82659369318182,88L119.06349914772727,88L119.11426460227273,88L119.43577914772727,88L119.79113732954545,88L119.84190278409092,88L120.04496460227273,88L120.24802642045455,88L120.29879187499999,88L120.46801005681817,88L120.7556809659091,88L121.26333551136365,88L121.415631875,88L121.92328642045455,88L122.02481732954546,88L122.21095732954545,88L122.65092460227272,88L122.78629914772726,88L122.98936096590909,88L123.04012642045456,88L123.20934460227274,88L123.44625005681819,88L123.70007732954545,88L123.71699914772728,88L123.98774823863637,88L124.59693369318182,88L124.79999551136363,88L124.88460460227273,88L125.05382278409091,88L125.10458823863635,88L125.49379005681818,88L126.03528823863637,88L126.23835005681819,88L126.89830096590909,88L127.4567209659091,88L127.50748642045454,88L127.52440823863637,88L127.744391875,88L127.86284460227272,88L128.04898460227272,88L128.09975005681818,88L128.116671875,88L128.47203005681817,88L128.62432642045454,88L128.9627627840909,88L129.29643988636363,88L129.51642352272728,88L129.80409443181819,88L129.9056253409091,88L130.04099988636364,88L130.14253079545455,88L130.29482715909091,88L130.53173261363636,88L130.8363253409091,88L130.90401261363635,88L131.22552715909092,88L131.34397988636363,88L132.20699261363634,88L132.22391443181817,88L132.27467988636363,88L132.6977253409091,88L132.74849079545453,88L132.8161780681818,88L132.85002170454544,88L133.13769261363637,88L133.2899889772727,88L133.94993988636364,88L134.13607988636363,88L134.35606352272728,88L134.37298534090908,88L134.7452653409091,88L135.03293625,88L135.30368534090908,88L135.72673079545456,88L135.92979261363635,88L136.18361988636363,88L136.80972715909093,88L137.1650853409091,88L137.38506897727274,88L137.52044352272728,88L137.63889625,88L137.7235053409091,88L137.82503625,88L137.94348897727272,88L138.06194170454546,88L138.16347261363637,88L138.21423806818183,88L138.78957988636364,88L138.87418897727272,88L138.99264170454546,88L139.11109443181817,88L139.36492170454545,88L139.39876534090908,88L139.56798352272727,88L139.58490534090907,88L139.94026352272726,88L140.3463871590909,88L140.36330897727274,88L140.39715261363637,88L140.73558897727273,88L140.82019806818184,88L141.41246170454545,88L142.05549079545455,88L142.71544170454544,88L143.1554089772727,88L143.17233079545454,88L143.54461079545456,88L144.55991988636362,88L144.88143443181818,88L145.15218352272728,88L145.16910534090908,88L145.45677625,88L145.52446352272727,88L145.74444715909092,88L145.94750897727275,88L146.416560625,88L146.58577880681818,88L146.8057624431818,88L147.00882426136363,88L147.36418244318182,88L148.29488244318182,88L148.3794915340909,88L148.41333517045456,88L148.98867698863637,88L149.2255824431818,88L149.42864426136362,88L149.71631517045455,88L150.68085880681818,88L150.79931153409092,88L150.9685297159091,88L151.05313880681817,88L151.20543517045454,88L151.32388789772727,88L151.56079335227273,88L151.814620625,88L152.000760625,88L152.05152607954543,88L152.06844789772725,88L152.33919698863636,88L152.52533698863635,88L152.72839880681818,88L152.84685153409092,88L153.45603698863638,88L153.72678607954546,88L153.8790824431818,88L154.11598789772728,88L154.28520607954545,88L154.72517335227275,88L154.92823517045454,88L155.52049880681818,88L155.7912478977273,88L156.12968426136365,88L156.29890244318182,88L156.3835115340909,88L156.62041698863638,88L157.43266426136364,88L157.51727335227272,88L157.82186607954546,88L158.61719153409092,88L158.85409698863634,88L159.49712607954547,88L159.68326607954546,88L159.88632789772726,88L159.90324971590908,88L160.07246789772725,88L160.1739988068182,88L160.42782607954544,88L160.54627880681818,88L160.80010607954546,88L161.07085517045456,88L161.27391698863636,88L161.68004062499998,88L162.00155517045457,88L162.30614789772727,88L162.83072426136363,88L163.169160625,88L163.23684789772727,88L163.70589954545454,88L163.756665,88L164.1120231818182,88L164.60275590909092,88L164.65352136363637,88L165.1611759090909,88L165.27962863636364,88L165.7872831818182,88L165.97342318181816,88L166.0918759090909,88L166.53184318181818,88L166.5656868181818,88L166.66721772727274,88L166.70106136363634,88L166.921045,88L167.49638681818183,88L167.59791772727272,88L167.665605,88L168.03788500000002,88L168.1394159090909,88L168.27479045454547,88L168.34247772727272,88L168.47785227272726,88L168.7147577272727,88L169.45931772727272,88L169.6962231818182,88L169.86544136363636,88L170.03465954545456,88L170.085425,88L170.18695590909093,88L170.27156499999998,88L170.37309590909092,88L170.42386136363635,88L170.457705,88L170.5253922727273,88L170.55923590909092,88L170.89767227272728,88L171.18534318181818,88L171.35456136363635,88L171.91298136363636,88L172.132965,88L172.16680863636364,88L172.25141772727272,88L172.57293227272726,88L173.11443045454544,88L173.6390068181818,88L173.67285045454545,88L173.85899045454545,88L173.8928340909091,88L174.2651140909091,88L174.33280136363635,88L174.70508136363634,88L175.3819540909091,88L175.55117227272729,88L175.80499954545454,88L175.90653045454548,88L176.1434359090909,88L176.71877772727274,88L176.87107409090908,88L177.09105772727273,88L177.19258863636364,88L177.3618068181818,88L177.5141031818182,88L177.58179045454546,88L177.68332136363637,88L177.76793045454545,88L177.86946136363636,88L177.95407045454544,88L178.07252318181816,88L178.08944499999998,88L178.15713227272727,88L178.647865,88L178.7324740909091,88L179.00322318181819,88L179.05398863636364,88L179.42626863636363,88L179.64625227272728,88L179.6631740909091,88L179.90007954545453,88L179.9339231818182,88L180.00161045454547,88L180.62295846590908,88L181.06292573863638,88L181.19830028409092,88L181.2659875568182,88L181.46904937500003,88L181.58750210227274,88L181.68903301136362,88L181.79056392045456,88L181.89209482954544,88L182.16284392045455,88L182.34898392045454,88L183.02585664772727,88L183.12738755681818,88L183.19507482954546,88L183.27968392045454,88L183.29660573863634,88L183.31352755681817,88L183.56735482954545,88L183.6011984659091,88L183.83810392045453,88L183.97347846590907,88L184.261149375,88L184.59958573863636,88L184.88725664772727,88L185.4795202840909,88L185.56412937500002,88L185.59797301136362,88L186.1394711931818,88L186.15639301136363,88L186.42714210227274,88L186.63020392045456,88L186.7655784659091,88L187.15478028409092,88L187.3239984659091,88L187.34092028409088,88L187.45937301136365,88L187.611669375,88L187.8654966477273,88L188.32238573863637,88L188.55929119318182,88L188.84696210227273,88L188.89772755681818,88L188.9992584659091,88L189.60844392045456,88L189.62536573863636,88L189.91303664772727,88L190.2345511931818,88L190.3191602840909,88L190.36992573863634,88L190.9791111931818,88L191.23293846590911,88L191.55445301136365,88L191.75751482954547,88L192.1805602840909,88L192.3667002840909,88L192.41746573863637,88L193.02665119318183,88L193.06049482954543,88L193.44969664772728,88L193.68660210227273,88L194.43116210227274,88L194.46500573863634,88L194.498849375,88L194.61730210227273,88L194.9557384659091,88L195.22648755681817,88L195.31109664772728,88L195.64953301136364,88L195.8187511931818,88L195.9033602840909,88L195.93720392045455,88L196.14026573863637,88L196.51254573863636,88L196.5294675568182,88L196.80021664772727,88L197.2063402840909,88L197.4601675568182,88L197.74307920454544,88L198.41995193181816,88L198.60609193181818,88L198.7076228409091,88L198.84299738636363,88L199.38449556818182,88L199.40141738636365,88L199.50294829545453,88L199.65524465909093,88L199.67216647727273,88L199.68908829545452,88L199.72293193181818,88L199.97675920454546,88L200.01060284090912,88L200.2813519318182,88L200.3998046590909,88L200.43364829545453,88L200.5859446590909,88L200.67055375,88L201.5166446590909,88L201.65201920454544,88L201.8720028409091,88L202.04122102272726,88L202.05814284090908,88L202.9719210227273,88L203.12421738636363,88L203.63187193181818,88L203.68263738636364,88L203.80109011363635,88L203.95338647727272,88L204.02107375,88L204.03799556818183,88L204.05491738636366,88L204.07183920454546,88L204.8502428409091,88L205.18867920454545,88L205.3071319318182,88L205.67941193181818,88L206.10245738636362,88L206.1701446590909,88L206.22091011363636,88L206.37320647727273,88L206.39012829545456,88L206.49165920454544,88L206.69472102272726,88L206.72856465909092,88L206.86393920454546,88L207.21929738636365,88L208.57304284090907,88L208.64073011363635,88L208.94532284090909,88L209.63911738636364,88L209.85910102272726,88L209.97755375000003,88L210.01139738636363,88L210.19753738636362,88L210.33291193181816,88L210.38367738636364,88L211.12823738636362,88L211.24669011363636,88L211.31437738636365,88L211.78818829545455,88L211.90664102272729,88L212.04201556818182,88L213.04040284090908,88L213.09116829545454,88L213.22654284090908,88L213.29423011363636,88L213.36191738636361,88L213.48037011363638,88L214.19108647727273,88L214.22493011363636,88L214.25877375,88L214.44491374999998,88L214.63105374999998,88L214.9478090340909,88L215.1170272159091,88L215.8954308522727,88L216.01388357954545,88L216.0815708522727,88L216.31847630681818,88L216.38616357954547,88L216.94458357954548,88L216.97842721590908,88L217.24917630681819,88L217.28301994318184,88L217.38455085227272,88L217.7229872159091,88L217.75683085227274,88L217.77375267045454,88L218.1121890340909,88L218.3660163068182,88L218.3998599431818,88L218.941358125,88L218.99212357954545,88L219.09365448863636,88L219.16134176136364,88L219.17826357954544,88L219.2121072159091,88L219.3305599431818,88L219.43209085227275,88L219.55054357954546,88L219.60130903409092,88L219.71976176136363,88L219.78744903409088,88L220.02435448863636,88L220.39663448863635,88L220.63353994318183,88L220.7858363068182,88L220.83660176136365,88L221.10735085227273,88L221.66577085227271,88L221.733458125,88L221.98728539772728,88L222.00420721590908,88L222.44417448863638,88L222.54570539772726,88L223.10412539772727,88L223.1210472159091,88L223.25642176136364,88L223.54409267045455,88L223.61177994318183,88L223.62870176136363,88L224.10251267045453,88L224.339418125,88L224.59324539772726,88L224.77938539772725,88L225.13474357954544,88L225.49010176136363,88L225.67624176136363,88L225.91314721590908,88L226.26850539772727,88L226.62386357954546,88L226.64078539772729,88L226.69155085227274,88L226.70847267045457,88L227.09767448863636,88L227.41918903409092,88L227.58840721590911,88L227.82531267045454,88L228.07913994318181,88L228.33296721590906,88L228.82369994318182,88L228.85754357954548,88L228.9083090340909,88L229.24674539772727,88L229.41596357954543,88L229.78824357954545,88L229.8390090340909,88L230.73586539772728,88L230.83739630681816,88L231.040458125,88L231.4296599431818,88L231.58195630681817,88L231.73425267045454,88L232.38944431818183,88L232.5586625,88L232.7278806818182,88L233.06631704545455,88L233.16784795454544,88L233.50628431818183,88L233.64165886363637,88L233.92932977272727,88L234.8769515909091,88L235.09693522727272,88L235.26615340909092,88L235.48613704545454,88L235.6384334090909,88L235.8076515909091,88L235.95994795454547,88L235.97686977272727,88L236.04455704545452,88L236.1122443181818,88L236.17993159090906,88L236.33222795454546,88L236.43375886363637,88L237.05986613636364,88L237.2967715909091,88L237.60136431818182,88L238.14286249999998,88L238.2274715909091,88L238.26131522727272,88L238.56590795454545,88L238.7858915909091,88L238.83665704545456,88L238.87050068181816,88L240.1057934090909,88L240.24116795454546,88L240.5457606818182,88L240.6642134090909,88L240.76574431818182,88L240.9349625,88L240.96880613636364,88L241.1211025,88L241.15494613636366,88L241.56106977272725,88L242.18717704545455,88L243.10095522727275,88L243.38862613636363,88L243.64245340909093,88L243.6593752272727,88L243.67629704545453,88L243.74398431818182,88L243.84551522727276,88L244.0993425,88L244.23471704545454,88L244.25163886363637,88L244.55623159090908,88L244.6577625,88L245.1315734090909,88L245.3177134090909,88L245.9607425,88L246.36686613636363,88L246.5022406818182,88L246.56992795454545,88L246.6714588636364,88L246.72222431818182,88L246.87452068181818,88L247.0945043181818,88L247.1621915909091,88L247.19603522727274,88L247.29756613636363,88L247.68676795454545,88L248.14365704545455,88L248.3805625,88L248.5497806818182,88L248.71899886363636,88L249.01883232954546,88L249.39111232954548,88L249.9833759659091,88L250.05106323863637,88L250.69409232954544,88L250.89715414772726,88L251.72632323863635,88L251.98015051136363,88L252.06475960227272,88L252.09860323863634,88L252.318586875,88L252.64010142045453,88L252.9785377840909,88L253.85847232954544,88L254.12922142045454,88L254.48457960227273,88L254.60303232954544,88L254.77225051136364,88L254.95839051136363,88L255.73679414772727,88L255.97369960227272,88L256.2782923295454,88L256.56596323863636,88L256.972086875,88L256.9890086931818,88L257.02285232954546,88L257.1920705113636,88L257.2259141477273,88L257.27667960227274,88L258.1566141477273,88L258.20737960227274,88L258.7150341477273,88L258.86733051136366,88L259.1042359659091,88L259.1211577840909,88L259.8826396022727,88L260.08570142045454,88L260.28876323863636,88L260.55951232954544,88L260.9656359659091,88L261.3209941477273,88L261.49021232954544,88L261.7101959659091,88L261.7440396022727,88L262.2347723295455,88L262.9454886931818,88L263.01317596590906,88L263.1823941477273,88L263.2670032386364,88L263.7577359659091,88L263.80850142045455,88L263.8423450568182,88L264.28231232954545,88L264.72227960227275,88L265.19609051136365,88L265.56837051136364,88L267.00196579545457,88L267.1373403409091,88L267.28963670454544,88L268.59261670454543,88L268.7449130681818,88L268.77875670454546,88L269.0833494318182,88L269.23564579545456,88L269.26948943181816,88L269.4556294318182,88L269.72637852272726,88" style="fill: none;" fill="none"></path></g></g></g></g></g></g><g transform="translate(39, 176)" clip-path="url(#clip_1)"><clipPath id="clip_1"><rect width="290" height="24"></rect></clipPath><g><g><line x1="0" y1="0" x2="0" y2="5" style="visibility: inherit;" fill="rgb(0, 0, 0)" stroke="rgb(204, 204, 204)" stroke-width="1px"></line><line x1="26.44034090909091" y1="0" x2="26.44034090909091" y2="5" style="visibility: inherit;" fill="rgb(0, 0, 0)" stroke="rgb(204, 204, 204)" stroke-width="1px"></line><line x1="52.88068181818182" y1="0" x2="52.88068181818182" y2="5" style="visibility: inherit;" fill="rgb(0, 0, 0)" stroke="rgb(204, 204, 204)" stroke-width="1px"></line><line x1="79.32102272727272" y1="0" x2="79.32102272727272" y2="5" style="visibility: inherit;" fill="rgb(0, 0, 0)" stroke="rgb(204, 204, 204)" stroke-width="1px"></line><line x1="105.76136363636364" y1="0" x2="105.76136363636364" y2="5" style="visibility: inherit;" fill="rgb(0, 0, 0)" stroke="rgb(204, 204, 204)" stroke-width="1px"></line><line x1="132.20170454545453" y1="0" x2="132.20170454545453" y2="5" style="visibility: inherit;" fill="rgb(0, 0, 0)" stroke="rgb(204, 204, 204)" stroke-width="1px"></line><line x1="158.64204545454544" y1="0" x2="158.64204545454544" y2="5" style="visibility: inherit;" fill="rgb(0, 0, 0)" stroke="rgb(204, 204, 204)" stroke-width="1px"></line><line x1="185.08238636363637" y1="0" x2="185.08238636363637" y2="5" style="visibility: inherit;" fill="rgb(0, 0, 0)" stroke="rgb(204, 204, 204)" stroke-width="1px"></line><line x1="211.52272727272728" y1="0" x2="211.52272727272728" y2="5" style="visibility: inherit;" fill="rgb(0, 0, 0)" stroke="rgb(204, 204, 204)" stroke-width="1px"></line><line x1="237.9630681818182" y1="0" x2="237.9630681818182" y2="5" style="visibility: inherit;" fill="rgb(0, 0, 0)" stroke="rgb(204, 204, 204)" stroke-width="1px"></line><line x1="264.40340909090907" y1="0" x2="264.40340909090907" y2="5" style="visibility: inherit;" fill="rgb(0, 0, 0)" stroke="rgb(204, 204, 204)" stroke-width="1px"></line><line x1="290.84375" y1="0" x2="290.84375" y2="5" style="visibility: inherit;" fill="rgb(0, 0, 0)" stroke="rgb(204, 204, 204)" stroke-width="1px"></line></g><g transform="translate(0, 8)"><text x="0" y="0" dx="0em" dy="0.95em" style="text-anchor: middle; visibility: hidden; font-family: &quot;Helvetica Neue&quot;, sans-serif; font-size: 12px; font-weight: 200;" fill="rgb(33, 33, 33)" stroke="none" stroke-width="1px">-100k</text><text x="26.44034090909091" y="0" dx="0em" dy="0.95em" style="text-anchor: middle; visibility: inherit; font-family: &quot;Helvetica Neue&quot;, sans-serif; font-size: 12px; font-weight: 200;" fill="rgb(33, 33, 33)" stroke="none" stroke-width="1px">0</text><text x="52.88068181818182" y="0" dx="0em" dy="0.95em" style="text-anchor: middle; visibility: hidden; font-family: &quot;Helvetica Neue&quot;, sans-serif; font-size: 12px; font-weight: 200;" fill="rgb(33, 33, 33)" stroke="none" stroke-width="1px">100k</text><text x="79.32102272727272" y="0" dx="0em" dy="0.95em" style="text-anchor: middle; visibility: inherit; font-family: &quot;Helvetica Neue&quot;, sans-serif; font-size: 12px; font-weight: 200;" fill="rgb(33, 33, 33)" stroke="none" stroke-width="1px">200k</text><text x="105.76136363636364" y="0" dx="0em" dy="0.95em" style="text-anchor: middle; visibility: hidden; font-family: &quot;Helvetica Neue&quot;, sans-serif; font-size: 12px; font-weight: 200;" fill="rgb(33, 33, 33)" stroke="none" stroke-width="1px">300k</text><text x="132.20170454545453" y="0" dx="0em" dy="0.95em" style="text-anchor: middle; visibility: inherit; font-family: &quot;Helvetica Neue&quot;, sans-serif; font-size: 12px; font-weight: 200;" fill="rgb(33, 33, 33)" stroke="none" stroke-width="1px">400k</text><text x="158.64204545454544" y="0" dx="0em" dy="0.95em" style="text-anchor: middle; visibility: hidden; font-family: &quot;Helvetica Neue&quot;, sans-serif; font-size: 12px; font-weight: 200;" fill="rgb(33, 33, 33)" stroke="none" stroke-width="1px">500k</text><text x="185.08238636363637" y="0" dx="0em" dy="0.95em" style="text-anchor: middle; visibility: inherit; font-family: &quot;Helvetica Neue&quot;, sans-serif; font-size: 12px; font-weight: 200;" fill="rgb(33, 33, 33)" stroke="none" stroke-width="1px">600k</text><text x="211.52272727272728" y="0" dx="0em" dy="0.95em" style="text-anchor: middle; visibility: hidden; font-family: &quot;Helvetica Neue&quot;, sans-serif; font-size: 12px; font-weight: 200;" fill="rgb(33, 33, 33)" stroke="none" stroke-width="1px">700k</text><text x="237.9630681818182" y="0" dx="0em" dy="0.95em" style="text-anchor: middle; visibility: inherit; font-family: &quot;Helvetica Neue&quot;, sans-serif; font-size: 12px; font-weight: 200;" fill="rgb(33, 33, 33)" stroke="none" stroke-width="1px">800k</text><text x="264.40340909090907" y="0" dx="0em" dy="0.95em" style="text-anchor: middle; visibility: hidden; font-family: &quot;Helvetica Neue&quot;, sans-serif; font-size: 12px; font-weight: 200;" fill="rgb(33, 33, 33)" stroke="none" stroke-width="1px">900k</text><text x="290.84375" y="0" dx="0em" dy="0.95em" style="text-anchor: middle; visibility: hidden; font-family: &quot;Helvetica Neue&quot;, sans-serif; font-size: 12px; font-weight: 200;" fill="rgb(33, 33, 33)" stroke="none" stroke-width="1px">1M</text></g><line x1="0" y1="0" x2="290.84375" y2="0" fill="rgb(0, 0, 0)" stroke="rgb(204, 204, 204)" stroke-width="1px"></line></g></g></g></g></svg>