<svg viewBox="0 0 330 200" xmlns="http://www.w3.org/2000/svg"><g><g><g><g><g><line x1="39.15625" y1="176" x2="34.15625" y2="176" style="visibility: inherit;" fill="rgb(0, 0, 0)" stroke="rgb(204, 204, 204)" stroke-width="1px"></line><line x1="39.15625" y1="156.44444444444446" x2="34.15625" y2="156.44444444444446" style="visibility: inherit;" fill="rgb(0, 0, 0)" stroke="rgb(204, 204, 204)" stroke-width="1px"></line><line x1="39.15625" y1="136.88888888888889" x2="34.15625" y2="136.88888888888889" style="visibility: inherit;" fill="rgb(0, 0, 0)" stroke="rgb(204, 204, 204)" stroke-width="1px"></line><line x1="39.15625" y1="117.33333333333334" x2="34.15625" y2="117.33333333333334" style="visibility: inherit;" fill="rgb(0, 0, 0)" stroke="rgb(204, 204, 204)" stroke-width="1px"></line><line x1="39.15625" y1="97.77777777777779" x2="34.15625" y2="97.77777777777779" style="visibility: inherit;" fill="rgb(0, 0, 0)" stroke="rgb(204, 204, 204)" stroke-width="1px"></line><line x1="39.15625" y1="78.22222222222221" x2="34.15625" y2="78.22222222222221" style="visibility: inherit;" fill="rgb(0, 0, 0)" stroke="rgb(204, 204, 204)" stroke-width="1px"></line><line x1="39.15625" y1="58.66666666666667" x2="34.15625" y2="58.66666666666667" style="visibility: inherit;" fill="rgb(0, 0, 0)" stroke="rgb(204, 204, 204)" stroke-width="1px"></line><line x1="39.15625" y1="39.111111111111114" x2="34.15625" y2="39.111111111111114" style="visibility: inherit;" fill="rgb(0, 0, 0)" stroke="rgb(204, 204, 204)" stroke-width="1px"></line><line x1="39.15625" y1="19.55555555555557" x2="34.15625" y2="19.55555555555557" style="visibility: inherit;" fill="rgb(0, 0, 0)" stroke="rgb(204, 204, 204)" stroke-width="1px"></line><line x1="39.15625" y1="0" x2="34.15625" y2="0" style="visibility: inherit;" fill="rgb(0, 0, 0)" stroke="rgb(204, 204, 204)" stroke-width="1px"></line></g><g transform="translate(29.15625, 0)"><text x="0" y="176" dx="0em" dy="0.3em" style="text-anchor: end; visibility: hidden; font-family: &quot;Helvetica Neue&quot;, sans-serif; font-size: 12px; font-weight: 200;" fill="rgb(33, 33, 33)" stroke="none" stroke-width="1px">2</text><text x="0" y="156.44444444444446" dx="0em" dy="0.3em" style="text-anchor: end; visibility: inherit; font-family: &quot;Helvetica Neue&quot;, sans-serif; font-size: 12px; font-weight: 200;" fill="rgb(33, 33, 33)" stroke="none" stroke-width="1px">2.5</text><text x="0" y="136.88888888888889" dx="0em" dy="0.3em" style="text-anchor: end; visibility: hidden; font-family: &quot;Helvetica Neue&quot;, sans-serif; font-size: 12px; font-weight: 200;" fill="rgb(33, 33, 33)" stroke="none" stroke-width="1px">3</text><text x="0" y="117.33333333333334" dx="0em" dy="0.3em" style="text-anchor: end; visibility: inherit; font-family: &quot;Helvetica Neue&quot;, sans-serif; font-size: 12px; font-weight: 200;" fill="rgb(33, 33, 33)" stroke="none" stroke-width="1px">3.5</text><text x="0" y="97.77777777777779" dx="0em" dy="0.3em" style="text-anchor: end; visibility: hidden; font-family: &quot;Helvetica Neue&quot;, sans-serif; font-size: 12px; font-weight: 200;" fill="rgb(33, 33, 33)" stroke="none" stroke-width="1px">4</text><text x="0" y="78.22222222222221" dx="0em" dy="0.3em" style="text-anchor: end; visibility: inherit; font-family: &quot;Helvetica Neue&quot;, sans-serif; font-size: 12px; font-weight: 200;" fill="rgb(33, 33, 33)" stroke="none" stroke-width="1px">4.5</text><text x="0" y="58.66666666666667" dx="0em" dy="0.3em" style="text-anchor: end; visibility: hidden; font-family: &quot;Helvetica Neue&quot;, sans-serif; font-size: 12px; font-weight: 200;" fill="rgb(33, 33, 33)" stroke="none" stroke-width="1px">5</text><text x="0" y="39.111111111111114" dx="0em" dy="0.3em" style="text-anchor: end; visibility: inherit; font-family: &quot;Helvetica Neue&quot;, sans-serif; font-size: 12px; font-weight: 200;" fill="rgb(33, 33, 33)" stroke="none" stroke-width="1px">5.5</text><text x="0" y="19.55555555555557" dx="0em" dy="0.3em" style="text-anchor: end; visibility: hidden; font-family: &quot;Helvetica Neue&quot;, sans-serif; font-size: 12px; font-weight: 200;" fill="rgb(33, 33, 33)" stroke="none" stroke-width="1px">6</text><text x="0" y="0" dx="0em" dy="0.3em" style="text-anchor: end; visibility: hidden; font-family: &quot;Helvetica Neue&quot;, sans-serif; font-size: 12px; font-weight: 200;" fill="rgb(33, 33, 33)" stroke="none" stroke-width="1px">6.5</text></g><line x1="39.15625" y1="0" x2="39.15625" y2="176" fill="rgb(0, 0, 0)" stroke="rgb(204, 204, 204)" stroke-width="1px"></line></g></g><g transform="translate(39, 0)" clip-path="url(#clip_0)"><clipPath id="clip_0"><rect width="290" height="176"></rect></clipPath><g><g><g><line x1="0" y1="0" x2="0" y2="176" fill="rgb(0, 0, 0)" stroke="rgb(66, 66, 66)" stroke-width="1px" opacity="0.25"></line><line x1="26.44034090909091" y1="0" x2="26.44034090909091" y2="176" fill="rgb(0, 0, 0)" stroke="rgb(66, 66, 66)" stroke-width="1px" opacity="0.25"></line><line x1="52.88068181818182" y1="0" x2="52.88068181818182" y2="176" fill="rgb(0, 0, 0)" stroke="rgb(66, 66, 66)" stroke-width="1px" opacity="0.25"></line><line x1="79.32102272727272" y1="0" x2="79.32102272727272" y2="176" fill="rgb(0, 0, 0)" stroke="rgb(66, 66, 66)" stroke-width="1px" opacity="0.25"></line><line x1="105.76136363636364" y1="0" x2="105.76136363636364" y2="176" fill="rgb(0, 0, 0)" stroke="rgb(66, 66, 66)" stroke-width="1px" opacity="0.25"></line><line x1="132.20170454545453" y1="0" x2="132.20170454545453" y2="176" fill="rgb(0, 0, 0)" stroke="rgb(66, 66, 66)" stroke-width="1px" opacity="0.25"></line><line x1="158.64204545454544" y1="0" x2="158.64204545454544" y2="176" fill="rgb(0, 0, 0)" stroke="rgb(66, 66, 66)" stroke-width="1px" opacity="0.25"></line><line x1="185.08238636363637" y1="0" x2="185.08238636363637" y2="176" fill="rgb(0, 0, 0)" stroke="rgb(66, 66, 66)" stroke-width="1px" opacity="0.25"></line><line x1="211.52272727272728" y1="0" x2="211.52272727272728" y2="176" fill="rgb(0, 0, 0)" stroke="rgb(66, 66, 66)" stroke-width="1px" opacity="0.25"></line><line x1="237.9630681818182" y1="0" x2="237.9630681818182" y2="176" fill="rgb(0, 0, 0)" stroke="rgb(66, 66, 66)" stroke-width="1px" opacity="0.25"></line><line x1="264.40340909090907" y1="0" x2="264.40340909090907" y2="176" fill="rgb(0, 0, 0)" stroke="rgb(66, 66, 66)" stroke-width="1px" opacity="0.25"></line><line x1="290.84375" y1="0" x2="290.84375" y2="176" fill="rgb(0, 0, 0)" stroke="rgb(66, 66, 66)" stroke-width="1px" opacity="0.25"></line></g><g><line x1="0" y1="176" x2="290.84375" y2="176" fill="rgb(0, 0, 0)" stroke="rgb(66, 66, 66)" stroke-width="1px" opacity="0.25"></line><line x1="0" y1="156.44444444444446" x2="290.84375" y2="156.44444444444446" fill="rgb(0, 0, 0)" stroke="rgb(66, 66, 66)" stroke-width="1px" opacity="0.25"></line><line x1="0" y1="136.88888888888889" x2="290.84375" y2="136.88888888888889" fill="rgb(0, 0, 0)" stroke="rgb(66, 66, 66)" stroke-width="1px" opacity="0.25"></line><line x1="0" y1="117.33333333333334" x2="290.84375" y2="117.33333333333334" fill="rgb(0, 0, 0)" stroke="rgb(66, 66, 66)" stroke-width="1px" opacity="0.25"></line><line x1="0" y1="97.77777777777779" x2="290.84375" y2="97.77777777777779" fill="rgb(0, 0, 0)" stroke="rgb(66, 66, 66)" stroke-width="1px" opacity="0.25"></line><line x1="0" y1="78.22222222222221" x2="290.84375" y2="78.22222222222221" fill="rgb(0, 0, 0)" stroke="rgb(66, 66, 66)" stroke-width="1px" opacity="0.25"></line><line x1="0" y1="58.66666666666667" x2="290.84375" y2="58.66666666666667" fill="rgb(0, 0, 0)" stroke="rgb(66, 66, 66)" stroke-width="1px" opacity="0.25"></line><line x1="0" y1="39.111111111111114" x2="290.84375" y2="39.111111111111114" fill="rgb(0, 0, 0)" stroke="rgb(66, 66, 66)" stroke-width="1px" opacity="0.25"></line><line x1="0" y1="19.55555555555557" x2="290.84375" y2="19.55555555555557" fill="rgb(0, 0, 0)" stroke="rgb(66, 66, 66)" stroke-width="1px" opacity="0.25"></line><line x1="0" y1="0" x2="290.84375" y2="0" fill="rgb(0, 0, 0)" stroke="rgb(66, 66, 66)" stroke-width="1px" opacity="0.25"></line></g></g></g><g><g><line x1="0" y1="254.22222222222223" x2="290.84375" y2="254.22222222222223" fill="rgb(0, 0, 0)" stroke="rgb(153, 153, 153)" stroke-width="1.5px"></line></g></g><g><g><line x1="26.44034090909091" y1="0" x2="26.44034090909091" y2="176" fill="rgb(0, 0, 0)" stroke="rgb(153, 153, 153)" stroke-width="1.5px"></line></g></g><g><g><g><g><g><path stroke="rgb(255, 112, 67)" stroke-width="2px" d="M27.89561727272727,-32.03167385525177L28.250975454545458,9.926042344835054L28.30174090909091,-9.889600965711821L30.078531818181816,-11.587183634440095L30.21390636363636,10.54412841796875L30.50157727272727,-44.23321363661026L30.62003,-17.28082275390625L31.17845,0.5071953667534785L31.29690272727273,14.134853786892364L31.449199090909094,-0.08619859483505365L31.550729999999998,-7.570556640625L31.872244545454546,20.873357137044252L31.973775454545454,26.60920037163629L32.09222818181818,-30.874837239583343L33.24291181818182,-7.238667805989593L34.91817181818182,2.929502699110259L35.18892090909091,-26.48896620008682L35.44274818181818,-2.014272054036468L35.54427909090909,2.12896728515625L35.57812272727273,-3.6416388617621465L35.62888818181818,10.232754177517364L35.815028181818185,11.521275838216127L36.44113545454546,32.616433037651916L36.88110272727273,11.990593804253479L37.625662727272726,-1.7541842990451073L37.710271818181816,26.37867228190106L38.217926363636366,8.855255126953125L38.285613636363635,0.3539326985676894L38.776346363636364,13.583626641167541L38.89479909090909,9.604448106553804L38.97940818181819,1.1841396755642393L39.554750000000006,8.319675021701386L39.74089,8.53351169162326L40.265466363636364,-4.740587022569429L40.502371818181814,12.022130330403627L40.65466818181818,0.39921400282119635L40.94233909090909,-19.553243001302093L41.280775454545456,11.26396687825519L41.78843,8.588901095920136L42.17763181818182,-2.608225504557282L42.39761545454546,-1.529083251953125L43.81428892045455,2.4379170735676894L43.9496634659091,7.325948079427064L43.98350710227273,6.592756483289946L44.20349073863637,16.8179202609592L44.321943465909094,20.892473008897554L44.37270892045454,7.777772691514741L44.44039619318181,39.831583658854186L44.5250052840909,13.999755859375L45.489548920454546,0.8449774848090215L45.87875073863636,28.49980672200519L45.980281647727274,35.19744873046875L46.52177982954546,29.892300075954864L46.67407619318182,14.333024766710054L46.77560710227273,30.75939602322049L47.401714375000005,50.96358574761284L47.60477619318181,38.29052734375L48.16319619318182,25.1649169921875L48.637007102272726,35.25824652777777L48.67085073863636,17.36101616753473L49.02620892045454,37.931745741102446L49.110818011363634,28.43919542100693L49.127739829545455,13.109870062934021L49.144661647727276,30.07282850477432L49.550785284090914,21.10205756293402L49.720003465909095,20.920186360677064L49.75384710227273,29.55089992947049L50.22765801136364,22.51514010959201L50.27842346590909,41.2822265625L50.32918892045455,57.222849527994796L50.36303255681818,21.592319064670136L50.65070346590909,42.406538221571196L51.124514375,41.62877400716144L51.19220164772727,11.837685479058166L51.361419829545454,38.751919216579864L52.122901647727275,58.29380459255643L52.34288528409091,55.82093811035156L52.376728920454546,33.91722615559894L52.56286892045455,34.138877020941834L52.71516528409091,46.90661960177951L53.62894346590909,1.2520243326823106L54.64425255681818,45.84161376953125L55.101141647727275,42.66173977322049L55.52418710227273,58.095186021592866L56.099528920454546,10.771486070420991L56.53949619318182,22.20861477322049L56.87793255681818,46.8399658203125L56.928698011363636,49.3492923312717L57.53788346590909,24.041034274631073L57.673258011363636,47.47845458984375L58.011694375,47.34656439887152L59.331596193181824,66.54132419162326L59.39928346590909,46.7617679172092L59.805407102272724,48.88747151692708L59.991547102272726,37.0585700141059L60.02539073863636,56.2611813015408L60.228452556818176,33.4390869140625L60.38074892045454,31.40277099609375L60.69750420454546,55.965565999348954L60.76519147727273,55.25128512912326L61.34053329545454,56.887529161241304L62.42352965909091,51.91788736979167L62.94810602272727,58.90944756401909L62.99887147727273,33.175381130642364L63.16808965909091,43.611677381727446L63.23577693181819,49.792388916015625L63.35422965909091,50.85642496744792L63.45576056818182,43.09776814778644L63.55729147727273,56.99150085449219L63.82804056818182,53.323454115125884L63.84496238636364,48.32846747504341L64.08186784090908,44.66472880045575L64.14955511363635,35.0658196343316L64.50491329545454,76.13657803005643L64.69105329545454,10.867270575629334L65.1987078409091,44.69883897569443L65.30023875,36.42974175347223L65.96018965909091,56.244639078776046L65.97711147727273,44.12681749131943L67.43238784090909,63.14075046115451L67.46623147727273,63.263987223307296L67.53391875,56.946611192491304L67.61852784090908,62.63776991102432L68.85382056818182,59.77921040852864L69.02303875,30.01732720269098L69.05688238636364,52.69266764322917L69.15841329545455,70.25138854980469L69.22610056818182,24.85906304253473L69.3107096590909,65.35886298285591L69.32763147727273,87.54368082682292L69.41224056818182,27.10850694444443L69.69991147727274,37.7765621609158L69.91989511363637,18.833124796549498L70.00450420454546,77.24078538682724L70.61368965909091,69.10937839084201L70.88443875,88.42308553059897L70.90136056818181,72.14324442545573L71.03673511363637,79.40453423394096L71.05365693181818,69.85450575086807L71.22287511363636,48.93487887912326L71.71360784090909,61.93141513400607L71.93359147727273,47.7154541015625L71.95051329545454,76.01570977105034L72.01820056818183,62.647243923611114L72.10280965909091,32.97620307074652L72.61046420454545,47.190634833441834L72.81352602272727,67.12192450629341L72.84736965909092,67.01314120822482L73.23657147727272,81.9951171875L73.28733693181819,79.25999959309895L73.5750078409091,47.611128065321196L74.04881875,77.15807427300346L74.30264602272727,88.49292839898003L74.57339511363637,82.74647352430557L74.70876965909092,61.089738633897554L74.72569147727273,40.25636630588107L75.09797147727272,46.06328328450519L75.47025147727273,55.971832275390625L75.58870420454545,54.385382758246536L75.69023511363636,26.42839219835068L75.70715693181819,38.90620761447482L75.77484420454546,67.01136949327255L75.8256096590909,54.443718804253464L75.85945329545454,84.53010559082031L75.87637511363637,78.86500040690105L75.89329693181817,54.784895155164946L76.21481147727273,57.118952433268234L76.53632602272727,35.86115180121527L76.85784056818183,66.11525472005208L76.99321511363637,93.10365804036459L77.04398056818182,49.874521891276046L77.72085329545455,55.5545654296875L77.81762494318181,54.69000583224826L78.0883740340909,65.10285949707031L78.32527948863635,94.1991933186849L78.4437322159091,64.77009412977432L78.66371585227273,78.90190802680122L78.83293403409091,66.98227606879341L79.35751039772727,49.705705430772554L79.3744322159091,50.72550455729167L79.86516494318181,60.87668524848091L79.93285221590908,72.5738084581163L80.08514857954546,84.63353644476997L80.32205403409091,66.35590955946182L80.62664676136365,86.08651055230034L80.84663039772727,78.7299584282769L80.965083125,69.57254197862412L81.08353585227272,85.68822903103299L81.20198857954546,54.29724460177951L81.2358322159091,56.59029134114583L81.25275403409091,72.72100999620224L81.30351948863637,75.75759887695312L81.55734676136363,72.09167819552951L82.081923125,57.422736273871536L82.84340494318182,92.41645643446181L83.16491948863636,55.31350029839409L83.58796494318182,52.80810885959201L83.60488676136363,69.98801845974393L83.62180857954546,73.05429755316841L83.63873039772727,67.45030721028645L83.79102676136364,41.431610107421875L84.11254130681817,61.326365152994796L84.19715039772728,80.04201592339409L84.34944676136364,58.424072265625L84.46789948863636,72.67024570041232L85.07708494318183,67.05536397298177L85.11092857954546,81.17578294542099L85.16169403409091,80.3467508951823L85.22938130681818,52.332021077473954L85.68627039772727,61.08078681098091L85.95701948863636,58.36707899305557L86.0923940340909,50.29827880859375L86.56620494318182,86.17584228515625L87.32768676136364,69.00273980034721L87.36153039772728,75.44575839572482L87.51382676136363,82.02954440646701L87.76765403409091,51.997894287109375L88.02148130681817,87.42510647243924L88.038403125,56.698496500651046L88.27530857954547,67.32268778483073L88.29223039772727,85.45126681857639L88.39376130681818,63.18756103515625L88.44452676136363,66.96090359157986L88.52913585227273,102.41335805257162L88.73219767045455,66.83796522352432L88.85065039772726,74.1958787706163L88.86757221590909,85.84537082248264L89.13832130681818,66.17601521809895L89.57828857954546,73.00062391493057L90.13670857954546,74.95503065321182L90.7289722159091,61.94866604275174L91.55814130681819,76.26132541232639L91.59198494318181,69.74521891276042L91.77812494318181,85.49817064073349L92.133483125,62.466790093315964L92.86112130681818,83.48436482747395L93.01341767045454,103.37505425347221L93.064183125,91.69654337565103L93.5210722159091,95.12050374348959L93.72413403409091,84.12195841471355L94.04564857954546,76.29075453016495L94.77328676136364,57.77439371744792L94.87481767045453,98.50109439425998L94.92082386363636,82.91892666286893L95.14080750000001,72.38738674587674L95.3269475,86.05420939127605L95.4115565909091,64.85582648383247L95.56385295454545,83.22263590494792L95.66538386363636,91.91034274631076L95.81768022727272,77.70887247721355L96.00382022727273,83.47220526801216L96.20688204545455,85.24766879611545L96.51147477272727,95.8592529296875L96.56224022727272,67.09040662977432L96.64684931818182,83.59115261501736L96.7314584090909,107.35399966769748L97.49294022727273,108.9249047173394L97.50986204545454,96.53653293185764L97.57754931818181,96.53209431966147L97.6452365909091,110.02678087022569L97.72984568181819,88.04261440700955L97.78061113636363,113.92291259765625L98.03443840909091,70.33633761935764L98.42364022727273,68.21438259548611L98.59285840909091,93.64968193901909L98.84668568181819,83.43736775716145L98.88052931818181,95.41375054253471L99.03282568181818,110.16026560465494L99.0497475,75.39350212944878L99.33741840909092,110.61693912082248L99.55740204545454,108.81573910183377L100.14966568181819,94.11469184027779L100.36964931818181,117.59282430013022L100.60655477272726,92.99125671386719L100.89422568181818,96.69960530598959L100.96191295454545,81.7067379421658L101.6557075,117.67154439290366L101.72339477272727,101.4725121392144L101.7403165909091,102.57422977023654L101.97722204545454,123.09636773003471L102.34950204545454,79.23765733506943L102.55256386363635,104.37029181586372L102.72178204545455,99.80991617838541L102.87407840909091,105.38932630750868L103.11098386363636,99.21137491861978L103.31404568181819,108.43600463867188L103.72016931818182,112.44379170735678L103.77093477272727,79.37831285264755L103.7878565909091,75.45181952582466L103.82170022727273,91.06894599066841L103.8893875,81.74435424804688L103.99091840909091,84.0880906846788L104.34627659090908,85.88729519314236L104.43088568181818,150.8849894205729L104.58318204545455,99.622683207194L104.6339475,94.1091528998481L105.02314931818182,83.86175876193576L105.15852386363636,101.24052937825522L105.39542931818183,86.03231472439236L105.54772568181818,113.71993001302084L105.64925659090909,98.35300699869791L106.02153659090908,86.36550903320312L107.37528204545454,104.01317003038194L107.74756204545454,83.94834899902344L107.91678022727272,117.425537109375L108.10292022727273,118.06087409125435L108.3567475,121.08004421657986L108.88132386363635,115.21785905626085L109.18591659090909,108.85299173990884L109.43974386363637,64.48893229166667L109.57511840909092,83.54605780707466L109.60896204545455,90.44599236382378L109.91355477272728,110.61968994140625L110.01508568181819,132.88633304172092L110.20122568181817,117.75650278727213L110.30275659090908,95.45157199435764L110.87809840909091,108.60836452907986L110.89502022727274,97.63107977973091L111.60573659090909,80.06432088216145L111.7918765909091,89.36246744791666L112.2778500568182,94.96382819281685L112.48091187499999,79.75835503472221L112.63320823863637,113.64690738254123L113.25931551136362,123.64470418294272L113.32700278409091,100.8117930094401L113.6992827840909,111.70509847005209L113.8854227840909,115.95193650987413L113.98695369318182,116.45555114746094L114.0546409659091,101.62879604763455L114.13925005681818,100.23448435465494L114.528451875,94.37988959418404L114.900731875,107.71694946289062L115.49299551136363,118.30814954969618L115.78066642045454,117.0082516140408L116.06833732954546,92.723876953125L116.18679005681818,113.41131591796875L116.67752278409091,119.39601050482857L116.69444460227272,101.55563354492188L116.79597551136364,99.16726854112413L116.8636627840909,118.71935526529947L116.96519369318182,108.14370897081163L117.06672460227273,109.42734442816841L117.20209914772727,106.33380889892578L117.35439551136363,102.3761240641276L117.62514460227273,96.5462866889106L117.70975369318181,126.12772538926866L118.18356460227272,119.20303344726562L118.47123551136364,104.22533755832248L118.64045369318181,107.47295633951822L118.67429732954545,105.07140604654947L118.82659369318182,104.20393710666232L119.06349914772727,106.45449998643663L119.11426460227273,117.70601823594835L119.43577914772727,111.95723215738931L119.79113732954545,130.62990485297308L119.84190278409092,92.57949150933159L120.04496460227273,120.00407240125868L120.24802642045455,88.41148546006944L120.29879187499999,114.2354990641276L120.46801005681817,102.45672776963976L120.7556809659091,137.0813717312283L121.26333551136365,133.9657457139757L121.415631875,110.49900817871094L121.92328642045455,110.67961120605469L122.02481732954546,126.63045416937935L122.21095732954545,110.70154317220053L122.65092460227272,98.37710232204861L122.78629914772726,144.1793933444553L122.98936096590909,119.81502109103732L123.04012642045456,117.10640462239584L123.20934460227274,117.70316484239366L123.44625005681819,89.22442287868924L123.70007732954545,132.54883999294705L123.71699914772728,124.61189270019531L123.98774823863637,125.27785237630209L124.59693369318182,107.59796481662326L124.79999551136363,96.05365668402779L124.88460460227273,104.74920569525825L125.05382278409091,103.46985965304904L125.10458823863635,116.68772972954643L125.49379005681818,122.34496476915147L126.03528823863637,112.17452833387587L126.23835005681819,98.59214189317491L126.89830096590909,132.51029120551215L127.4567209659091,134.26303015814887L127.50748642045454,129.40365431043836L127.52440823863637,105.33882310655382L127.744391875,133.62862565782336L127.86284460227272,132.30617099338107L128.04898460227272,111.31241183810764L128.09975005681818,106.17813110351562L128.116671875,112.43428039550781L128.47203005681817,119.94137234157986L128.62432642045454,108.6429689195421L128.9627627840909,95.9958987765842L129.29643988636363,115.06177096896701L129.51642352272728,120.77193366156685L129.80409443181819,123.04368252224393L129.9056253409091,113.50556182861328L130.04099988636364,133.56619601779514L130.14253079545455,122.04020182291666L130.29482715909091,110.72884623209634L130.53173261363636,115.90193684895834L130.8363253409091,115.76155175103081L130.90401261363635,121.23096635606554L131.22552715909092,123.460324605306L131.34397988636363,116.50282796223959L132.20699261363634,98.56409284803603L132.22391443181817,124.17981804741753L132.27467988636363,95.5823245578342L132.6977253409091,104.2909935845269L132.74849079545453,113.13063897026909L132.8161780681818,97.76597256130643L132.85002170454544,127.58882141113281L133.13769261363637,99.34770372178819L133.2899889772727,138.06929863823785L133.94993988636364,122.14419216579861L134.13607988636363,122.16968621148003L134.35606352272728,109.83723534478081L134.37298534090908,116.55683729383681L134.7452653409091,116.17978837754991L135.03293625,133.68361409505206L135.30368534090908,133.3466339111328L135.72673079545456,106.21938408745659L135.92979261363635,137.08747016059027L136.18361988636363,140.31946055094403L136.80972715909093,114.71997918023003L137.1650853409091,124.6499752468533L137.38506897727274,109.51326327853732L137.52044352272728,102.63774108886719L137.63889625,96.6067860921224L137.7235053409091,133.92779371473523L137.82503625,129.41706339518228L137.94348897727272,139.17708672417535L138.06194170454546,103.64571634928384L138.16347261363637,125.78561655680338L138.21423806818183,112.98677571614584L138.78957988636364,126.76247490776909L138.87418897727272,128.67784796820746L138.99264170454546,141.87940894232855L139.11109443181817,145.54032219780817L139.36492170454545,130.22403293185764L139.39876534090908,128.16524420844183L139.56798352272727,103.72472551133897L139.58490534090907,115.9347881740994L139.94026352272726,128.72215949164496L140.3463871590909,127.95245191786024L140.36330897727274,135.55199008517795L140.39715261363637,133.04960123697919L140.73558897727273,126.64140150282118L140.82019806818184,114.90347290039062L141.41246170454545,97.31287977430556L142.05549079545455,118.69294738769531L142.71544170454544,150.83193122016058L143.1554089772727,143.10352410210504L143.17233079545454,125.61421712239584L143.54461079545456,92.98821682400174L144.55991988636362,143.71635097927518L144.88143443181818,150.79969533284506L145.15218352272728,105.6639421251085L145.16910534090908,123.25589667426216L145.45677625,122.8814680311415L145.52446352272727,139.83250935872394L145.74444715909092,124.00824144151476L145.94750897727275,141.38365512424045L146.416560625,144.98325771755643L146.58577880681818,150.63428243001303L146.8057624431818,149.29154629177518L147.00882426136363,135.7839635213216L147.36418244318182,112.36339314778647L148.29488244318182,131.67606523301868L148.3794915340909,138.0316636827257L148.41333517045456,124.09587605794272L148.98867698863637,123.17954508463541L149.2255824431818,137.2369842529297L149.42864426136362,126.29561869303384L149.71631517045455,132.91219075520831L150.68085880681818,151.65684170193143L150.79931153409092,130.13596937391492L150.9685297159091,111.89738549126518L151.05313880681817,125.33285013834634L151.20543517045454,101.55807664659288L151.32388789772727,149.78783162434897L151.56079335227273,114.14336988661024L151.814620625,117.90343390570747L152.000760625,135.22495015462238L152.05152607954543,155.35451338026257L152.06844789772725,128.50709194607205L152.33919698863636,110.04147677951389L152.52533698863635,123.66214158799913L152.72839880681818,109.44735548231337L152.84685153409092,115.52340528700087L153.45603698863638,124.80176459418404L153.72678607954546,139.98812188042535L153.8790824431818,120.72864786783853L154.11598789772728,143.37095981174045L154.28520607954545,145.60479397243924L154.72517335227275,128.7839830186632L154.92823517045454,129.06569502088757L155.52049880681818,143.11198170979816L155.7912478977273,111.31067742241753L156.12968426136365,132.75476921929254L156.29890244318182,115.5553707546658L156.3835115340909,137.61993577745227L156.62041698863638,137.99258338080512L157.43266426136364,134.08834838867188L157.51727335227272,135.6918250189887L157.82186607954546,143.24731275770398L158.61719153409092,113.45353868272569L158.85409698863634,142.0847880045573L159.49712607954547,115.29314761691623L159.68326607954546,100.27015177408853L159.88632789772726,114.88450622558594L159.90324971590908,137.51939561631946L160.07246789772725,115.05945841471353L160.1739988068182,98.8995344373915L160.42782607954544,139.5116424560547L160.54627880681818,116.27379184299045L160.80010607954546,132.69794379340277L161.07085517045456,140.43604871961804L161.27391698863636,133.64402092827692L161.68004062499998,144.47425333658853L162.00155517045457,148.35496181911893L162.30614789772727,145.2742199367947L162.83072426136363,134.89205423990887L163.169160625,137.2440431382921L163.23684789772727,130.18802981906467L163.70589954545454,125.83640882703993L163.756665,128.7369859483507L164.1120231818182,120.52186075846353L164.60275590909092,145.10181342230902L164.65352136363637,153.2298821343316L165.1611759090909,125.85716586642795L165.27962863636364,124.94457414415147L165.7872831818182,151.1642862955729L165.97342318181816,157.89417351616754L166.0918759090909,140.78552415635852L166.53184318181818,142.41460673014325L166.5656868181818,105.33589511447482L166.66721772727274,138.88214280870227L166.70106136363634,133.92228274875217L166.921045,142.0024871826172L167.49638681818183,128.47645060221353L167.59791772727272,128.2634251912435L167.665605,124.58818901909721L168.03788500000002,118.38208601209853L168.1394159090909,125.64012145996094L168.27479045454547,141.42694091796875L168.34247772727272,159.45842997233072L168.47785227272726,139.0316662258572L168.7147577272727,126.89737701416016L169.45931772727272,155.80694410536023L169.6962231818182,113.67666286892361L169.86544136363636,135.77694193522137L170.03465954545456,151.84872775607639L170.085425,144.79191250271268L170.18695590909093,128.47229173448352L170.27156499999998,158.2225375705295L170.37309590909092,134.86746470133465L170.42386136363635,136.29137335883246L170.457705,119.72625817192925L170.5253922727273,137.6696277194553L170.55923590909092,136.79865264892578L170.89767227272728,117.73929850260416L171.18534318181818,139.42301008436414L171.35456136363635,139.4999491373698L171.91298136363636,136.90473175048828L172.132965,130.86923556857639L172.16680863636364,136.65632798936633L172.25141772727272,157.89480760362414L172.57293227272726,143.3055369059245L173.11443045454544,133.75243123372394L173.6390068181818,138.86353980170355L173.67285045454545,134.6741706000434L173.85899045454545,123.71876186794705L173.8928340909091,149.72893608940973L174.2651140909091,158.8342081705729L174.33280136363635,133.81179300944012L174.70508136363634,156.92293802897134L175.3819540909091,121.70458306206596L175.55117227272729,115.63353135850694L175.80499954545454,122.37251959906685L175.90653045454548,123.59707302517361L176.1434359090909,112.21267615424263L176.71877772727274,132.07075670030383L176.87107409090908,130.25355529785156L177.09105772727273,153.34559377034506L177.19258863636364,117.2257063123915L177.3618068181818,136.41748216417102L177.5141031818182,154.8733901977539L177.58179045454546,147.97154405381946L177.68332136363637,154.92466735839844L177.76793045454545,135.59505208333331L177.86946136363636,140.83949618869357L177.95407045454544,140.22665066189236L178.07252318181816,131.12589179144965L178.08944499999998,125.9554214477539L178.15713227272727,164.80792744954428L178.647865,161.28184170193143L178.7324740909091,121.61582946777344L179.00322318181819,147.35938856336804L179.05398863636364,118.33526611328125L179.42626863636363,132.42357042100696L179.64625227272728,129.04863993326822L179.6631740909091,106.1457273695204L179.90007954545453,141.84654829237195L179.9339231818182,136.35593838161893L180.00161045454547,132.82389407687717L180.62295846590908,151.11275736490884L181.06292573863638,144.51908704969617L181.19830028409092,123.96463860405815L181.2659875568182,155.71380784776477L181.46904937500003,147.85912407769098L181.58750210227274,146.64829678005643L181.68903301136362,145.6981167263455L181.79056392045456,125.78163486056857L181.89209482954544,133.42410447862414L182.16284392045455,122.74299452039931L182.34898392045454,150.7322209676107L183.02585664772727,155.9832017686632L183.12738755681818,153.47301737467447L183.19507482954546,147.59442053900824L183.27968392045454,124.92600843641493L183.29660573863634,155.96808624267578L183.31352755681817,149.0569339328342L183.56735482954545,156.55328369140625L183.6011984659091,116.0447743733724L183.83810392045453,150.55597262912326L183.97347846590907,140.56834920247394L184.261149375,165.37408362494574L184.59958573863636,123.06986660427518L184.88725664772727,152.4059041341146L185.4795202840909,147.7998835245768L185.56412937500002,142.65207248263889L185.59797301136362,125.31144968668619L186.1394711931818,151.29086134168836L186.15639301136363,140.22886996799045L186.42714210227274,153.28972880045572L186.63020392045456,132.12131585015192L186.7655784659091,153.93838161892361L187.15478028409092,154.47858683268228L187.3239984659091,124.19365607367622L187.34092028409088,162.55955590142145L187.45937301136365,122.14595455593533L187.611669375,135.26271565755206L187.8654966477273,147.4415028889974L188.32238573863637,134.66304609510632L188.55929119318182,135.48134528266058L188.84696210227273,168.48373243543836L188.89772755681818,124.67405192057291L188.9992584659091,122.01578945583768L189.60844392045456,146.89476097954645L189.62536573863636,147.50933159722223L189.91303664772727,149.41267564561633L190.2345511931818,133.21177842881946L190.3191602840909,117.18506876627603L190.36992573863634,154.348636203342L190.9791111931818,124.00083753797743L191.23293846590911,158.17535400390625L191.55445301136365,131.1619415283203L191.75751482954547,169.17274305555554L192.1805602840909,149.3092074924045L192.3667002840909,128.18093787299262L192.41746573863637,148.30259365505643L193.02665119318183,154.39212714301215L193.06049482954543,148.2043660481771L193.44969664772728,157.18282996283637L193.68660210227273,157.9010738796658L194.43116210227274,132.00307718912762L194.46500573863634,141.91468471950955L194.498849375,135.1410641140408L194.61730210227273,151.60564846462674L194.9557384659091,138.91284942626953L195.22648755681817,142.81847381591797L195.31109664772728,157.17327202690973L195.64953301136364,142.2589569091797L195.8187511931818,122.58048163519966L195.9033602840909,149.12754143608942L195.93720392045455,144.5769288804796L196.14026573863637,131.97979312472873L196.51254573863636,129.67953830295139L196.5294675568182,133.81099107530383L196.80021664772727,148.7931162516276L197.2063402840909,98.46772087944878L197.4601675568182,119.42388237847221L197.74307920454544,144.68827650282117L198.41995193181816,145.05057356092664L198.60609193181818,148.18925984700522L198.7076228409091,147.71744283040366L198.84299738636363,156.55824449327258L199.38449556818182,128.71556684705945L199.40141738636365,118.15962388780382L199.50294829545453,142.71702914767795L199.65524465909093,147.96738518608942L199.67216647727273,149.75023396809897L199.68908829545452,152.12433200412326L199.72293193181818,143.7372758653429L199.97675920454546,156.25472174750433L200.01060284090912,126.4285905626085L200.2813519318182,161.10235765245227L200.3998046590909,143.74109903971356L200.43364829545453,175.23711819118924L200.5859446590909,112.8980221218533L200.67055375,142.50794813368054L201.5166446590909,143.50189887152777L201.65201920454544,166.68765174018012L201.8720028409091,132.34117635091144L202.04122102272726,150.4857381184896L202.05814284090908,153.4654829237196L202.9719210227273,152.25813378228082L203.12421738636363,131.80115763346353L203.63187193181818,134.82675255669488L203.68263738636364,145.60784318712024L203.80109011363635,165.61783430311414L203.95338647727272,160.17439863416882L204.02107375,140.0999264187283L204.03799556818183,162.5498767428928L204.05491738636366,138.0800035264757L204.07183920454546,154.52823215060764L204.8502428409091,119.89357333713107L205.18867920454545,140.97133043077258L205.3071319318182,140.3078325059679L205.67941193181818,131.0802001953125L206.10245738636362,133.14591725667316L206.1701446590909,148.03980170355902L206.22091011363636,131.96334415011935L206.37320647727273,143.33339945475262L206.39012829545456,144.67350599500867L206.49165920454544,133.36679416232639L206.69472102272726,112.34971364339194L206.72856465909092,127.55775112575955L206.86393920454546,145.48441060384116L207.21929738636365,148.20237053765192L208.57304284090907,147.6081280178494L208.64073011363635,164.09649064805774L208.94532284090909,153.8999260796441L209.63911738636364,150.92952473958334L209.85910102272726,123.556398179796L209.97755375000003,146.29969787597656L210.01139738636363,138.07552761501736L210.19753738636362,163.67458004421658L210.33291193181816,143.50206671820746L210.38367738636364,135.27359771728516L211.12823738636362,169.52123006184897L211.24669011363636,148.5974816216363L211.31437738636365,139.08216010199652L211.78818829545455,149.56534152560764L211.90664102272729,150.55917104085287L212.04201556818182,159.34703572591147L213.04040284090908,152.43465254041882L213.09116829545454,136.41702524820965L213.22654284090908,127.9242163764106L213.29423011363636,161.3856921725803L213.36191738636361,140.34435780843097L213.48037011363638,146.64425913492838L214.19108647727273,183.33845731947156L214.22493011363636,165.35318671332465L214.25877375,149.41945478651257L214.44491374999998,132.04973856608075L214.63105374999998,148.83347405327692L214.9478090340909,144.48426818847656L215.1170272159091,158.23335435655383L215.8954308522727,127.49177805582681L216.01388357954545,101.93585289849175L216.0815708522727,172.82581414116754L216.31847630681818,136.9186723497179L216.38616357954547,126.32965426974826L216.94458357954548,151.51978556315103L216.97842721590908,167.10985141330295L217.24917630681819,144.66806962754993L217.28301994318184,161.51744249131946L217.38455085227272,145.84720187717014L217.7229872159091,143.7664532131619L217.75683085227274,148.71822865804037L217.77375267045454,175.4185045030382L218.1121890340909,151.0424109564887L218.3660163068182,151.33052910698785L218.3998599431818,159.07342698838977L218.941358125,137.63660854763455L218.99212357954545,137.996947394477L219.09365448863636,173.91366577148438L219.16134176136364,167.56349436442056L219.17826357954544,162.70430501302084L219.2121072159091,141.47479587131076L219.3305599431818,162.52933417426215L219.43209085227275,155.87122938368054L219.55054357954546,133.73314751519098L219.60130903409092,162.77746751573352L219.71976176136363,126.33585527208116L219.78744903409088,135.743773566352L220.02435448863636,132.41771443684894L220.39663448863635,175.42676628960504L220.63353994318183,150.13609483506946L220.7858363068182,126.97371927897134L220.83660176136365,140.5365515814887L221.10735085227273,150.3059556749132L221.66577085227271,126.11712307400174L221.733458125,146.74307420518664L221.98728539772728,148.91414303249783L222.00420721590908,160.30864800347223L222.44417448863638,136.43629031711154L222.54570539772726,141.74808756510419L223.10412539772727,157.1419219970703L223.1210472159091,162.9720950656467L223.25642176136364,140.92405361599393L223.54409267045455,159.86685689290366L223.61177994318183,134.27325948079425L223.62870176136363,142.92443169487848L224.10251267045453,165.84113566080728L224.339418125,142.5155758327908L224.59324539772726,160.1277372572157L224.77938539772725,152.64883422851562L225.13474357954544,149.60978359646268L225.49010176136363,109.2230004204644L225.67624176136363,138.6078813340929L225.91314721590908,128.71898905436197L226.26850539772727,141.75712331136066L226.62386357954546,162.38007185194226L226.64078539772729,178.37315622965494L226.69155085227274,141.8303510877821L226.70847267045457,152.3562774658203L227.09767448863636,152.11905415852866L227.41918903409092,159.37596130371094L227.58840721590911,144.8418935139974L227.82531267045454,142.5991914537218L228.07913994318181,173.9171346028646L228.33296721590906,157.76097785101996L228.82369994318182,158.1704584757487L228.85754357954548,161.00139787462024L228.9083090340909,150.32555643717447L229.24674539772727,147.9256100124783L229.41596357954543,151.27108340793185L229.78824357954545,175.62799580891928L229.8390090340909,170.73731655544705L230.73586539772728,140.66534593370227L230.83739630681816,155.33987341986762L231.040458125,150.03051927354602L231.4296599431818,123.52515072292752L231.58195630681817,141.2239490085178L231.73425267045454,167.70201449924045L232.38944431818183,160.65609063042535L232.5586625,169.3158416748047L232.7278806818182,117.72044372558594L233.06631704545455,136.61378818088107L233.16784795454544,149.22685072157117L233.50628431818183,149.63220977783203L233.64165886363637,146.11800384521484L233.92932977272727,133.67466227213544L234.8769515909091,152.80875481499567L235.09693522727272,168.75580257839627L235.26615340909092,140.71560668945312L235.48613704545454,182.02520624796549L235.6384334090909,172.06043328179254L235.8076515909091,173.4247843424479L235.95994795454547,161.74470689561633L235.97686977272727,168.95002916124133L236.04455704545452,149.2663319905599L236.1122443181818,147.7251264784071L236.17993159090906,165.38856506347656L236.33222795454546,168.24732971191406L236.43375886363637,152.76366000705295L237.05986613636364,145.77991400824652L237.2967715909091,144.4303707546658L237.60136431818182,166.70964898003473L238.14286249999998,127.94415283203125L238.2274715909091,145.56348503960504L238.26131522727272,157.24319881863065L238.56590795454545,149.30734252929688L238.7858915909091,166.07571072048611L238.83665704545456,149.85036383734808L238.87050068181816,155.5201873779297L240.1057934090909,170.19825829399957L240.24116795454546,137.98641967773438L240.5457606818182,162.1910112169054L240.6642134090909,158.89539761013455L240.76574431818182,169.05511983235678L240.9349625,131.3935046725803L240.96880613636364,144.63708326551648L241.1211025,133.74291059705945L241.15494613636366,168.54667494032117L241.56106977272725,176.52109866672092L242.18717704545455,105.51424153645834L243.10095522727275,168.23453606499567L243.38862613636363,120.54416571723091L243.64245340909093,156.24576059977213L243.6593752272727,162.96061621771918L243.67629704545453,170.68757798936633L243.74398431818182,143.25214301215277L243.84551522727276,165.9052251180013L244.0993425,149.69068569607205L244.23471704545454,137.87002733018664L244.25163886363637,169.9743135240343L244.55623159090908,158.38280317518445L244.6577625,143.85424635145398L245.1315734090909,138.96580505371094L245.3177134090909,132.1305660671658L245.9607425,139.09081353081598L246.36686613636363,144.66332329644098L246.5022406818182,145.94043138292102L246.56992795454545,157.68938191731772L246.6714588636364,158.6345452202691L246.72222431818182,158.15042877197266L246.87452068181818,107.19822862413194L247.0945043181818,153.2102813720703L247.1621915909091,161.380731370714L247.19603522727274,157.12245178222656L247.29756613636363,153.4904547797309L247.68676795454545,143.75892808702258L248.14365704545455,156.15556165907117L248.3805625,167.0551986694336L248.5497806818182,151.93020799424914L248.71899886363636,145.01573605007596L249.01883232954546,165.15649837917752L249.39111232954548,148.15645514594183L249.9833759659091,160.26638793945312L250.05106323863637,164.46787940131293L250.69409232954544,180.44547526041666L250.89715414772726,144.40159437391492L251.72632323863635,163.35033755832248L251.98015051136363,164.77958001030817L252.06475960227272,154.01904127332898L252.09860323863634,121.47321573893228L252.318586875,164.8366199069553L252.64010142045453,151.82920159233942L252.9785377840909,173.15050421820746L253.85847232954544,150.8605211046007L254.12922142045454,161.98824310302734L254.48457960227273,160.68771107991537L254.60303232954544,124.56944613986545L254.77225051136364,162.3400870429145L254.95839051136363,159.82899814181857L255.73679414772727,159.19472418891058L255.97369960227272,160.92908393012152L256.2782923295454,136.98234219021268L256.56596323863636,154.34211815728082L256.972086875,155.93228827582465L256.9890086931818,161.69233873155383L257.02285232954546,149.52612135145398L257.1920705113636,175.49083709716797L257.2259141477273,144.81915961371527L257.27667960227274,137.6721920437283L258.1566141477273,140.15610843234592L258.20737960227274,168.71198527018228L258.7150341477273,139.99524603949652L258.86733051136366,153.40235392252603L259.1042359659091,160.641357421875L259.1211577840909,148.51608530680338L259.8826396022727,166.16131252712674L260.08570142045454,158.9169192843967L260.28876323863636,119.62921481662326L260.55951232954544,163.19105105929904L260.9656359659091,166.4060516357422L261.3209941477273,149.2071287367079L261.49021232954544,159.02169291178384L261.7101959659091,156.03128051757812L261.7440396022727,146.23006015353732L262.2347723295455,137.5837461683485L262.9454886931818,153.0929192437066L263.01317596590906,152.58107079399957L263.1823941477273,150.92139350043402L263.2670032386364,139.15854899088544L263.7577359659091,155.00918748643664L263.80850142045455,141.9282989501953L263.8423450568182,151.33694458007812L264.28231232954545,125.21427578396268L264.72227960227275,147.80933888753256L265.19609051136365,167.24507988823785L265.56837051136364,146.61661105685764L267.00196579545457,158.33172183566623L267.1373403409091,177.976077609592L267.28963670454544,151.12280951605902L268.59261670454543,150.2877722846137L268.7449130681818,155.49583095974393L268.77875670454546,168.68475680881076L269.0833494318182,170.96122402615018L269.23564579545456,167.25011528862848L269.26948943181816,169.28844536675348L269.4556294318182,185.32652197943793L269.72637852272726,163.3469526502821" style="fill: none;" fill="none"></path></g></g></g></g></g></g><g transform="translate(39, 176)" clip-path="url(#clip_1)"><clipPath id="clip_1"><rect width="290" height="24"></rect></clipPath><g><g><line x1="0" y1="0" x2="0" y2="5" style="visibility: inherit;" fill="rgb(0, 0, 0)" stroke="rgb(204, 204, 204)" stroke-width="1px"></line><line x1="26.44034090909091" y1="0" x2="26.44034090909091" y2="5" style="visibility: inherit;" fill="rgb(0, 0, 0)" stroke="rgb(204, 204, 204)" stroke-width="1px"></line><line x1="52.88068181818182" y1="0" x2="52.88068181818182" y2="5" style="visibility: inherit;" fill="rgb(0, 0, 0)" stroke="rgb(204, 204, 204)" stroke-width="1px"></line><line x1="79.32102272727272" y1="0" x2="79.32102272727272" y2="5" style="visibility: inherit;" fill="rgb(0, 0, 0)" stroke="rgb(204, 204, 204)" stroke-width="1px"></line><line x1="105.76136363636364" y1="0" x2="105.76136363636364" y2="5" style="visibility: inherit;" fill="rgb(0, 0, 0)" stroke="rgb(204, 204, 204)" stroke-width="1px"></line><line x1="132.20170454545453" y1="0" x2="132.20170454545453" y2="5" style="visibility: inherit;" fill="rgb(0, 0, 0)" stroke="rgb(204, 204, 204)" stroke-width="1px"></line><line x1="158.64204545454544" y1="0" x2="158.64204545454544" y2="5" style="visibility: inherit;" fill="rgb(0, 0, 0)" stroke="rgb(204, 204, 204)" stroke-width="1px"></line><line x1="185.08238636363637" y1="0" x2="185.08238636363637" y2="5" style="visibility: inherit;" fill="rgb(0, 0, 0)" stroke="rgb(204, 204, 204)" stroke-width="1px"></line><line x1="211.52272727272728" y1="0" x2="211.52272727272728" y2="5" style="visibility: inherit;" fill="rgb(0, 0, 0)" stroke="rgb(204, 204, 204)" stroke-width="1px"></line><line x1="237.9630681818182" y1="0" x2="237.9630681818182" y2="5" style="visibility: inherit;" fill="rgb(0, 0, 0)" stroke="rgb(204, 204, 204)" stroke-width="1px"></line><line x1="264.40340909090907" y1="0" x2="264.40340909090907" y2="5" style="visibility: inherit;" fill="rgb(0, 0, 0)" stroke="rgb(204, 204, 204)" stroke-width="1px"></line><line x1="290.84375" y1="0" x2="290.84375" y2="5" style="visibility: inherit;" fill="rgb(0, 0, 0)" stroke="rgb(204, 204, 204)" stroke-width="1px"></line></g><g transform="translate(0, 8)"><text x="0" y="0" dx="0em" dy="0.95em" style="text-anchor: middle; visibility: hidden; font-family: &quot;Helvetica Neue&quot;, sans-serif; font-size: 12px; font-weight: 200;" fill="rgb(33, 33, 33)" stroke="none" stroke-width="1px">-100k</text><text x="26.44034090909091" y="0" dx="0em" dy="0.95em" style="text-anchor: middle; visibility: inherit; font-family: &quot;Helvetica Neue&quot;, sans-serif; font-size: 12px; font-weight: 200;" fill="rgb(33, 33, 33)" stroke="none" stroke-width="1px">0</text><text x="52.88068181818182" y="0" dx="0em" dy="0.95em" style="text-anchor: middle; visibility: hidden; font-family: &quot;Helvetica Neue&quot;, sans-serif; font-size: 12px; font-weight: 200;" fill="rgb(33, 33, 33)" stroke="none" stroke-width="1px">100k</text><text x="79.32102272727272" y="0" dx="0em" dy="0.95em" style="text-anchor: middle; visibility: inherit; font-family: &quot;Helvetica Neue&quot;, sans-serif; font-size: 12px; font-weight: 200;" fill="rgb(33, 33, 33)" stroke="none" stroke-width="1px">200k</text><text x="105.76136363636364" y="0" dx="0em" dy="0.95em" style="text-anchor: middle; visibility: hidden; font-family: &quot;Helvetica Neue&quot;, sans-serif; font-size: 12px; font-weight: 200;" fill="rgb(33, 33, 33)" stroke="none" stroke-width="1px">300k</text><text x="132.20170454545453" y="0" dx="0em" dy="0.95em" style="text-anchor: middle; visibility: inherit; font-family: &quot;Helvetica Neue&quot;, sans-serif; font-size: 12px; font-weight: 200;" fill="rgb(33, 33, 33)" stroke="none" stroke-width="1px">400k</text><text x="158.64204545454544" y="0" dx="0em" dy="0.95em" style="text-anchor: middle; visibility: hidden; font-family: &quot;Helvetica Neue&quot;, sans-serif; font-size: 12px; font-weight: 200;" fill="rgb(33, 33, 33)" stroke="none" stroke-width="1px">500k</text><text x="185.08238636363637" y="0" dx="0em" dy="0.95em" style="text-anchor: middle; visibility: inherit; font-family: &quot;Helvetica Neue&quot;, sans-serif; font-size: 12px; font-weight: 200;" fill="rgb(33, 33, 33)" stroke="none" stroke-width="1px">600k</text><text x="211.52272727272728" y="0" dx="0em" dy="0.95em" style="text-anchor: middle; visibility: hidden; font-family: &quot;Helvetica Neue&quot;, sans-serif; font-size: 12px; font-weight: 200;" fill="rgb(33, 33, 33)" stroke="none" stroke-width="1px">700k</text><text x="237.9630681818182" y="0" dx="0em" dy="0.95em" style="text-anchor: middle; visibility: inherit; font-family: &quot;Helvetica Neue&quot;, sans-serif; font-size: 12px; font-weight: 200;" fill="rgb(33, 33, 33)" stroke="none" stroke-width="1px">800k</text><text x="264.40340909090907" y="0" dx="0em" dy="0.95em" style="text-anchor: middle; visibility: hidden; font-family: &quot;Helvetica Neue&quot;, sans-serif; font-size: 12px; font-weight: 200;" fill="rgb(33, 33, 33)" stroke="none" stroke-width="1px">900k</text><text x="290.84375" y="0" dx="0em" dy="0.95em" style="text-anchor: middle; visibility: hidden; font-family: &quot;Helvetica Neue&quot;, sans-serif; font-size: 12px; font-weight: 200;" fill="rgb(33, 33, 33)" stroke="none" stroke-width="1px">1M</text></g><line x1="0" y1="0" x2="290.84375" y2="0" fill="rgb(0, 0, 0)" stroke="rgb(204, 204, 204)" stroke-width="1px"></line></g></g></g></g></svg>